<svg xmlns="http://www.w3.org/2000/svg" xmlns:xlink="http://www.w3.org/1999/xlink" width="120" zoomAndPan="magnify" viewBox="0 0 90 30.000001" height="40" preserveAspectRatio="xMidYMid meet" version="1.0"><defs><g/><clipPath id="1e30250f53"><path d="M 27 0.394531 L 75.582031 0.394531 L 75.582031 26 L 27 26 Z M 27 0.394531 " clip-rule="nonzero"/></clipPath><clipPath id="3c761d0bed"><rect x="0" width="49" y="0" height="26"/></clipPath><clipPath id="2ed804ff8a"><rect x="0" width="76" y="0" height="27"/></clipPath></defs><g transform="matrix(1, 0, 0, 1, 6, 1)"><g clip-path="url(#2ed804ff8a)"><path fill="#053b06" d="M 14.074219 25.492188 L 10.808594 22.226562 L 5.910156 22.226562 C 5.472656 22.226562 5.09375 22.058594 4.765625 21.722656 C 4.441406 21.386719 4.277344 21.011719 4.277344 20.59375 L 4.277344 4.261719 C 4.277344 3.828125 4.441406 3.445312 4.765625 3.117188 C 5.09375 2.792969 5.472656 2.628906 5.910156 2.628906 L 22.242188 2.628906 C 22.65625 2.628906 23.035156 2.792969 23.371094 3.117188 C 23.707031 3.445312 23.875 3.828125 23.875 4.261719 L 23.875 20.59375 C 23.875 21.011719 23.707031 21.386719 23.371094 21.722656 C 23.035156 22.058594 22.65625 22.226562 22.242188 22.226562 L 17.339844 22.226562 Z M 5.910156 20.59375 L 11.460938 20.59375 L 14.074219 23.207031 L 16.6875 20.59375 L 22.242188 20.59375 L 22.242188 4.261719 L 5.910156 4.261719 Z M 14.074219 12.507812 Z M 14.078125 17.597656 C 15.546875 17.597656 16.773438 17.082031 17.761719 16.046875 C 18.75 15.011719 19.246094 13.804688 19.246094 12.425781 L 19.246094 7.257812 L 14.074219 7.257812 C 12.679688 7.257812 11.46875 7.75 10.441406 8.734375 C 9.417969 9.71875 8.902344 10.953125 8.902344 12.4375 C 8.902344 12.957031 8.984375 13.457031 9.148438 13.9375 C 9.3125 14.417969 9.546875 14.894531 9.855469 15.367188 L 9.257812 15.964844 C 9.09375 16.128906 9.011719 16.320312 9.011719 16.539062 C 9.011719 16.753906 9.09375 16.945312 9.257812 17.109375 C 9.421875 17.273438 9.609375 17.355469 9.828125 17.355469 C 10.046875 17.355469 10.238281 17.273438 10.402344 17.109375 L 10.972656 16.566406 C 11.445312 16.890625 11.941406 17.144531 12.46875 17.328125 C 12.996094 17.507812 13.53125 17.597656 14.078125 17.597656 Z M 14.074219 15.964844 C 13.765625 15.964844 13.449219 15.910156 13.121094 15.800781 C 12.796875 15.695312 12.46875 15.558594 12.140625 15.394531 L 15.246094 12.292969 C 15.410156 12.125 15.492188 11.929688 15.492188 11.707031 C 15.492188 11.480469 15.410156 11.285156 15.246094 11.121094 C 15.082031 10.957031 14.890625 10.875 14.671875 10.875 C 14.457031 10.875 14.265625 10.957031 14.101562 11.121094 L 10.972656 14.25 C 10.828125 13.90625 10.71875 13.578125 10.644531 13.269531 C 10.574219 12.960938 10.535156 12.679688 10.535156 12.421875 C 10.535156 11.390625 10.890625 10.542969 11.597656 9.882812 C 12.304688 9.21875 13.132812 8.890625 14.074219 8.890625 L 17.613281 8.890625 L 17.613281 12.425781 C 17.613281 13.410156 17.269531 14.246094 16.582031 14.933594 C 15.894531 15.621094 15.058594 15.964844 14.074219 15.964844 Z M 13.394531 12.972656 Z M 13.394531 12.972656 " fill-opacity="1" fill-rule="nonzero"/><g clip-path="url(#1e30250f53)"><g transform="matrix(1, 0, 0, 1, 27, 0.000000000000005773)"><g clip-path="url(#3c761d0bed)"><g fill="#053b06" fill-opacity="1"><g transform="translate(0.139463, 18.347447)"><g><path d="M 6.765625 0.3125 C 5.679688 0.3125 4.734375 0.0820312 3.921875 -0.375 C 3.117188 -0.84375 2.492188 -1.507812 2.046875 -2.375 C 1.609375 -3.25 1.390625 -4.296875 1.390625 -5.515625 L 1.390625 -13.84375 L 3.984375 -13.84375 L 3.984375 -5.359375 C 3.984375 -4.753906 4.082031 -4.207031 4.28125 -3.71875 C 4.488281 -3.238281 4.800781 -2.859375 5.21875 -2.578125 C 5.644531 -2.304688 6.160156 -2.171875 6.765625 -2.171875 C 7.378906 -2.171875 7.890625 -2.304688 8.296875 -2.578125 C 8.710938 -2.859375 9.023438 -3.238281 9.234375 -3.71875 C 9.441406 -4.207031 9.546875 -4.753906 9.546875 -5.359375 L 9.546875 -13.84375 L 12.140625 -13.84375 L 12.140625 -5.515625 C 12.140625 -4.359375 11.921875 -3.34375 11.484375 -2.46875 C 11.046875 -1.59375 10.425781 -0.910156 9.625 -0.421875 C 8.820312 0.0664062 7.867188 0.3125 6.765625 0.3125 Z M 6.765625 0.3125 "/></g></g></g><g fill="#053b06" fill-opacity="1"><g transform="translate(13.667236, 18.347447)"><g><path d="M 8.125 0.3125 C 7.101562 0.3125 6.148438 0.128906 5.265625 -0.234375 C 4.378906 -0.609375 3.609375 -1.125 2.953125 -1.78125 C 2.296875 -2.4375 1.785156 -3.203125 1.421875 -4.078125 C 1.054688 -4.953125 0.875 -5.898438 0.875 -6.921875 C 0.875 -7.941406 1.054688 -8.890625 1.421875 -9.765625 C 1.785156 -10.640625 2.296875 -11.40625 2.953125 -12.0625 C 3.609375 -12.71875 4.378906 -13.226562 5.265625 -13.59375 C 6.148438 -13.957031 7.101562 -14.140625 8.125 -14.140625 C 8.851562 -14.140625 9.523438 -14.050781 10.140625 -13.875 C 10.765625 -13.707031 11.335938 -13.457031 11.859375 -13.125 C 12.378906 -12.789062 12.859375 -12.378906 13.296875 -11.890625 L 11.46875 -10.109375 C 11.195312 -10.429688 10.894531 -10.707031 10.5625 -10.9375 C 10.226562 -11.164062 9.863281 -11.34375 9.46875 -11.46875 C 9.070312 -11.601562 8.628906 -11.671875 8.140625 -11.671875 C 7.273438 -11.671875 6.488281 -11.472656 5.78125 -11.078125 C 5.082031 -10.691406 4.523438 -10.144531 4.109375 -9.4375 C 3.703125 -8.726562 3.5 -7.890625 3.5 -6.921875 C 3.5 -5.960938 3.703125 -5.125 4.109375 -4.40625 C 4.523438 -3.695312 5.082031 -3.144531 5.78125 -2.75 C 6.488281 -2.363281 7.273438 -2.171875 8.140625 -2.171875 C 8.910156 -2.171875 9.59375 -2.328125 10.1875 -2.640625 C 10.789062 -2.960938 11.328125 -3.410156 11.796875 -3.984375 L 13.640625 -2.21875 C 13.191406 -1.675781 12.679688 -1.210938 12.109375 -0.828125 C 11.546875 -0.453125 10.929688 -0.171875 10.265625 0.015625 C 9.597656 0.210938 8.882812 0.3125 8.125 0.3125 Z M 8.125 0.3125 "/></g></g></g><g fill="#053b06" fill-opacity="1"><g transform="translate(28.06466, 18.347447)"><g><path d="M 1.5625 0 L 1.5625 -13.84375 L 4.171875 -13.84375 L 4.171875 0 Z M 1.5625 0 "/></g></g></g><g fill="#053b06" fill-opacity="1"><g transform="translate(33.804305, 18.347447)"><g><path d="M 1.5625 0 L 1.5625 -13.84375 L 6.25 -13.84375 C 7.71875 -13.84375 8.984375 -13.546875 10.046875 -12.953125 C 11.109375 -12.367188 11.925781 -11.554688 12.5 -10.515625 C 13.070312 -9.484375 13.359375 -8.285156 13.359375 -6.921875 C 13.359375 -5.554688 13.070312 -4.347656 12.5 -3.296875 C 11.925781 -2.253906 11.109375 -1.441406 10.046875 -0.859375 C 8.984375 -0.285156 7.71875 0 6.25 0 Z M 4.171875 -2.46875 L 6.125 -2.46875 C 7.144531 -2.46875 7.992188 -2.648438 8.671875 -3.015625 C 9.359375 -3.390625 9.875 -3.910156 10.21875 -4.578125 C 10.5625 -5.242188 10.734375 -6.023438 10.734375 -6.921875 C 10.734375 -7.816406 10.5625 -8.597656 10.21875 -9.265625 C 9.875 -9.929688 9.359375 -10.445312 8.671875 -10.8125 C 7.992188 -11.175781 7.144531 -11.359375 6.125 -11.359375 L 4.171875 -11.359375 Z M 4.171875 -2.46875 "/></g></g></g></g></g></g></g></g></svg>