<?xml version="1.0" encoding="UTF-8"?>
<!--
  Copyright 2026 UCID Foundation

  Licensed under the EUPL, Version 1.2 (the "License");
  you may not use this file except in compliance with the License.
  You may obtain a copy of the License at

      https://joinup.ec.europa.eu/collection/eupl/eupl-text-eupl-12

  UCID Logo - Icon Only Variant

  This SVG file contains the official UCID icon mark without the wordmark.
  Optimized for use in small spaces such as favicons, app icons, and
  compact UI elements.

  Usage:
    - Favicons
    - App icons
    - Social media profile pictures
    - Small UI elements

  Specifications:
    - Dimensions: 32x32 (1:1 aspect ratio)
    - Primary Color: Jungle Green (#0dab76)
    - Minimum Size: 16px

  Version: 1.0.5
  Last Updated: 2026-01-15
-->
<svg xmlns="http://www.w3.org/2000/svg" width="32" height="32" viewBox="0 0 32 32" preserveAspectRatio="xMidYMid meet">
  <title>UCID Icon</title>
  <desc>Official UCID icon mark</desc>

  <!-- Background (optional, can be removed for transparency) -->
  <rect width="32" height="32" fill="transparent"/>

  <!-- Icon Mark -->
  <g transform="translate(4, 2) scale(1.1)">
    <path fill="#0dab76" d="M 15.378906 27.746094 L 11.761719 24.128906 L 6.332031 24.128906 C 5.847656 24.128906 5.425781 23.941406 5.066406 23.570312 C 4.703125 23.199219 4.523438 22.78125 4.523438 22.320312 L 4.523438 4.222656 C 4.523438 3.738281 4.703125 3.316406 5.066406 2.957031 C 5.425781 2.59375 5.847656 2.414062 6.332031 2.414062 L 24.429688 2.414062 C 24.890625 2.414062 25.308594 2.59375 25.679688 2.957031 C 26.050781 3.316406 26.238281 3.738281 26.238281 4.222656 L 26.238281 22.320312 C 26.238281 22.78125 26.050781 23.199219 25.679688 23.570312 C 25.308594 23.941406 24.890625 24.128906 24.429688 24.128906 L 19 24.128906 Z M 6.332031 22.320312 L 12.484375 22.320312 L 15.378906 25.214844 L 18.277344 22.320312 L 24.429688 22.320312 L 24.429688 4.222656 L 6.332031 4.222656 Z M 15.378906 13.359375 Z M 15.382812 19 C 17.011719 19 18.371094 18.429688 19.46875 17.28125 C 20.5625 16.136719 21.109375 14.796875 21.109375 13.269531 L 21.109375 7.539062 L 15.378906 7.539062 C 13.832031 7.539062 12.492188 8.085938 11.355469 9.175781 C 10.21875 10.269531 9.648438 11.636719 9.648438 13.285156 C 9.648438 13.859375 9.738281 14.410156 9.921875 14.945312 C 10.101562 15.476562 10.363281 16.003906 10.707031 16.527344 L 10.042969 17.191406 C 9.859375 17.371094 9.769531 17.582031 9.769531 17.824219 C 9.769531 18.066406 9.859375 18.277344 10.042969 18.457031 C 10.222656 18.640625 10.433594 18.730469 10.675781 18.730469 C 10.917969 18.730469 11.128906 18.640625 11.308594 18.457031 L 11.941406 17.855469 C 12.464844 18.21875 13.019531 18.5 13.601562 18.699219 C 14.183594 18.902344 14.777344 19 15.382812 19 Z M 15.378906 17.191406 C 15.039062 17.191406 14.6875 17.132812 14.324219 17.011719 C 13.960938 16.890625 13.601562 16.738281 13.238281 16.558594 L 16.675781 13.121094 C 16.859375 12.9375 16.949219 12.722656 16.949219 12.46875 C 16.949219 12.21875 16.859375 12.003906 16.675781 11.824219 C 16.496094 11.640625 16.285156 11.550781 16.042969 11.550781 C 15.800781 11.550781 15.589844 11.640625 15.410156 11.824219 L 11.941406 15.292969 C 11.78125 14.910156 11.660156 14.546875 11.578125 14.207031 C 11.5 13.863281 11.460938 13.550781 11.460938 13.265625 C 11.460938 12.121094 11.851562 11.183594 12.636719 10.449219 C 13.417969 9.714844 14.335938 9.351562 15.378906 9.351562 L 19.300781 9.351562 L 19.300781 13.269531 C 19.300781 14.359375 18.917969 15.285156 18.15625 16.046875 C 17.394531 16.808594 16.46875 17.191406 15.378906 17.191406 Z"/>
  </g>
</svg>
