<svg xmlns="http://www.w3.org/2000/svg" xmlns:xlink="http://www.w3.org/1999/xlink" width="120" zoomAndPan="magnify" viewBox="0 0 90 30.000001" height="40" preserveAspectRatio="xMidYMid meet" version="1.0"><defs><g/><clipPath id="7e86735134"><path d="M 2 0 L 86 0 L 86 29.03125 L 2 29.03125 Z M 2 0 " clip-rule="nonzero"/></clipPath><clipPath id="cd22881f02"><path d="M 29 0 L 83.527344 0 L 83.527344 28 L 29 28 Z M 29 0 " clip-rule="nonzero"/></clipPath><clipPath id="15b34292f1"><rect x="0" width="55" y="0" height="28"/></clipPath><clipPath id="e214a8faa3"><rect x="0" width="84" y="0" height="30"/></clipPath></defs><g clip-path="url(#7e86735134)"><g transform="matrix(1, 0, 0, 1, 2, 0.000000000000005692)"><g clip-path="url(#e214a8faa3)"><path fill="#053b06" d="M 15.378906 27.746094 L 11.761719 24.128906 L 6.332031 24.128906 C 5.847656 24.128906 5.425781 23.941406 5.066406 23.570312 C 4.703125 23.199219 4.523438 22.78125 4.523438 22.320312 L 4.523438 4.222656 C 4.523438 3.738281 4.703125 3.316406 5.066406 2.957031 C 5.425781 2.59375 5.847656 2.414062 6.332031 2.414062 L 24.429688 2.414062 C 24.890625 2.414062 25.308594 2.59375 25.679688 2.957031 C 26.050781 3.316406 26.238281 3.738281 26.238281 4.222656 L 26.238281 22.320312 C 26.238281 22.78125 26.050781 23.199219 25.679688 23.570312 C 25.308594 23.941406 24.890625 24.128906 24.429688 24.128906 L 19 24.128906 Z M 6.332031 22.320312 L 12.484375 22.320312 L 15.378906 25.214844 L 18.277344 22.320312 L 24.429688 22.320312 L 24.429688 4.222656 L 6.332031 4.222656 Z M 15.378906 13.359375 Z M 15.382812 19 C 17.011719 19 18.371094 18.429688 19.46875 17.28125 C 20.5625 16.136719 21.109375 14.796875 21.109375 13.269531 L 21.109375 7.539062 L 15.378906 7.539062 C 13.832031 7.539062 12.492188 8.085938 11.355469 9.175781 C 10.21875 10.269531 9.648438 11.636719 9.648438 13.285156 C 9.648438 13.859375 9.738281 14.410156 9.921875 14.945312 C 10.101562 15.476562 10.363281 16.003906 10.707031 16.527344 L 10.042969 17.191406 C 9.859375 17.371094 9.769531 17.582031 9.769531 17.824219 C 9.769531 18.066406 9.859375 18.277344 10.042969 18.457031 C 10.222656 18.640625 10.433594 18.730469 10.675781 18.730469 C 10.917969 18.730469 11.128906 18.640625 11.308594 18.457031 L 11.941406 17.855469 C 12.464844 18.21875 13.019531 18.5 13.601562 18.699219 C 14.183594 18.902344 14.777344 19 15.382812 19 Z M 15.378906 17.191406 C 15.039062 17.191406 14.6875 17.132812 14.324219 17.011719 C 13.960938 16.890625 13.601562 16.738281 13.238281 16.558594 L 16.675781 13.121094 C 16.859375 12.9375 16.949219 12.722656 16.949219 12.46875 C 16.949219 12.21875 16.859375 12.003906 16.675781 11.824219 C 16.496094 11.640625 16.285156 11.550781 16.042969 11.550781 C 15.800781 11.550781 15.589844 11.640625 15.410156 11.824219 L 11.941406 15.292969 C 11.78125 14.910156 11.660156 14.546875 11.578125 14.207031 C 11.5 13.863281 11.460938 13.550781 11.460938 13.265625 C 11.460938 12.121094 11.851562 11.183594 12.636719 10.449219 C 13.417969 9.714844 14.335938 9.351562 15.378906 9.351562 L 19.300781 9.351562 L 19.300781 13.269531 C 19.300781 14.359375 18.917969 15.285156 18.15625 16.046875 C 17.394531 16.808594 16.46875 17.191406 15.378906 17.191406 Z M 14.625 13.875 Z M 14.625 13.875 " fill-opacity="1" fill-rule="nonzero"/><g clip-path="url(#cd22881f02)"><g transform="matrix(1, 0, 0, 1, 29, 0.000000000000005692)"><g clip-path="url(#15b34292f1)"><g fill="#053b06" fill-opacity="1"><g transform="translate(0.857174, 19.830626)"><g><path d="M 7.5 0.34375 C 6.300781 0.34375 5.253906 0.0859375 4.359375 -0.421875 C 3.460938 -0.941406 2.769531 -1.679688 2.28125 -2.640625 C 1.789062 -3.609375 1.546875 -4.765625 1.546875 -6.109375 L 1.546875 -15.34375 L 4.40625 -15.34375 L 4.40625 -5.9375 C 4.40625 -5.257812 4.519531 -4.65625 4.75 -4.125 C 4.976562 -3.59375 5.320312 -3.171875 5.78125 -2.859375 C 6.25 -2.554688 6.820312 -2.40625 7.5 -2.40625 C 8.1875 -2.40625 8.753906 -2.554688 9.203125 -2.859375 C 9.660156 -3.171875 10.003906 -3.59375 10.234375 -4.125 C 10.460938 -4.65625 10.578125 -5.257812 10.578125 -5.9375 L 10.578125 -15.34375 L 13.453125 -15.34375 L 13.453125 -6.109375 C 13.453125 -4.835938 13.207031 -3.710938 12.71875 -2.734375 C 12.238281 -1.765625 11.554688 -1.007812 10.671875 -0.46875 C 9.785156 0.0703125 8.726562 0.34375 7.5 0.34375 Z M 7.5 0.34375 "/></g></g></g><g fill="#053b06" fill-opacity="1"><g transform="translate(15.847491, 19.830626)"><g><path d="M 9 0.34375 C 7.875 0.34375 6.820312 0.140625 5.84375 -0.265625 C 4.863281 -0.671875 4.007812 -1.238281 3.28125 -1.96875 C 2.550781 -2.695312 1.984375 -3.546875 1.578125 -4.515625 C 1.171875 -5.492188 0.96875 -6.546875 0.96875 -7.671875 C 0.96875 -8.796875 1.171875 -9.84375 1.578125 -10.8125 C 1.984375 -11.789062 2.550781 -12.640625 3.28125 -13.359375 C 4.007812 -14.085938 4.863281 -14.65625 5.84375 -15.0625 C 6.820312 -15.476562 7.875 -15.6875 9 -15.6875 C 9.8125 -15.6875 10.5625 -15.585938 11.25 -15.390625 C 11.9375 -15.203125 12.566406 -14.921875 13.140625 -14.546875 C 13.722656 -14.171875 14.253906 -13.710938 14.734375 -13.171875 L 12.703125 -11.203125 C 12.398438 -11.554688 12.066406 -11.863281 11.703125 -12.125 C 11.335938 -12.382812 10.929688 -12.582031 10.484375 -12.71875 C 10.046875 -12.863281 9.554688 -12.9375 9.015625 -12.9375 C 8.054688 -12.9375 7.1875 -12.71875 6.40625 -12.28125 C 5.632812 -11.84375 5.019531 -11.234375 4.5625 -10.453125 C 4.101562 -9.671875 3.875 -8.742188 3.875 -7.671875 C 3.875 -6.609375 4.101562 -5.679688 4.5625 -4.890625 C 5.019531 -4.097656 5.632812 -3.484375 6.40625 -3.046875 C 7.1875 -2.617188 8.054688 -2.40625 9.015625 -2.40625 C 9.867188 -2.40625 10.628906 -2.582031 11.296875 -2.9375 C 11.960938 -3.289062 12.550781 -3.78125 13.0625 -4.40625 L 15.125 -2.46875 C 14.625 -1.863281 14.054688 -1.347656 13.421875 -0.921875 C 12.796875 -0.503906 12.113281 -0.191406 11.375 0.015625 C 10.632812 0.234375 9.84375 0.34375 9 0.34375 Z M 9 0.34375 "/></g></g></g><g fill="#053b06" fill-opacity="1"><g transform="translate(31.801479, 19.830626)"><g><path d="M 1.734375 0 L 1.734375 -15.34375 L 4.625 -15.34375 L 4.625 0 Z M 1.734375 0 "/></g></g></g><g fill="#053b06" fill-opacity="1"><g transform="translate(38.161661, 19.830626)"><g><path d="M 1.734375 0 L 1.734375 -15.34375 L 6.921875 -15.34375 C 8.546875 -15.34375 9.945312 -15.015625 11.125 -14.359375 C 12.300781 -13.710938 13.207031 -12.8125 13.84375 -11.65625 C 14.476562 -10.507812 14.796875 -9.179688 14.796875 -7.671875 C 14.796875 -6.148438 14.476562 -4.8125 13.84375 -3.65625 C 13.207031 -2.5 12.300781 -1.597656 11.125 -0.953125 C 9.945312 -0.316406 8.546875 0 6.921875 0 Z M 4.625 -2.734375 L 6.796875 -2.734375 C 7.921875 -2.734375 8.859375 -2.9375 9.609375 -3.34375 C 10.367188 -3.757812 10.9375 -4.335938 11.3125 -5.078125 C 11.695312 -5.816406 11.890625 -6.679688 11.890625 -7.671875 C 11.890625 -8.671875 11.695312 -9.535156 11.3125 -10.265625 C 10.9375 -11.003906 10.367188 -11.578125 9.609375 -11.984375 C 8.859375 -12.390625 7.921875 -12.59375 6.796875 -12.59375 L 4.625 -12.59375 Z M 4.625 -2.734375 "/></g></g></g></g></g></g></g></g></g></svg>